<svg xmlns="http://www.w3.org/2000/svg" xmlns:xlink="http://www.w3.org/1999/xlink" id="Layer_1" style="enable-background:new 0 0 24 24;" version="1.1" viewBox="0 0 24 24" xml:space="preserve"><path d="M11.179,13.054c-0.041,0.016-0.411,0.168-0.688,0.536  c-0.267,0.354-0.338,0.765-0.346,0.811c-0.026,0.169,0.035,0.341,0.164,0.455c0.093,0.081,0.21,0.124,0.33,0.124  c0.048,0,0.096-0.007,0.143-0.021c0.047-0.014,0.468-0.148,0.758-0.534c0.281-0.374,0.316-0.825,0.319-0.875  c0.011-0.17-0.066-0.334-0.205-0.435C11.518,13.016,11.337,12.992,11.179,13.054z M15.7,14.046c1.378,0,2.632-1.099,3.346-2.127  c0.901-1.301,1.233-3.024,0.824-4.289c-0.258-0.797-0.776-1.353-1.499-1.608c-0.255-0.09-0.509-0.135-0.755-0.135  c-1.288,0-2.102,1.18-2.891,2.322c-0.584,0.846-1.189,1.721-1.924,2.03c-0.239,0.1-0.362,0.366-0.283,0.613  C13.363,13.492,14.715,14.046,15.7,14.046z M13.213,14.959c0.047,0.014,0.095,0.021,0.143,0.021c0.12,0,0.237-0.043,0.33-0.124  c0.129-0.113,0.191-0.285,0.164-0.455c-0.008-0.046-0.079-0.457-0.345-0.81c-0.275-0.369-0.646-0.521-0.688-0.537  c-0.159-0.063-0.34-0.039-0.476,0.061c-0.139,0.101-0.216,0.264-0.205,0.435c0.003,0.05,0.037,0.5,0.318,0.875  C12.745,14.811,13.166,14.945,13.213,14.959z M8.295,14.046c0,0,0,0,0.001,0c0.984,0,2.336-0.554,3.181-3.195  c0.079-0.247-0.044-0.513-0.283-0.613c-0.736-0.309-1.34-1.185-1.923-2.031C8.483,7.065,7.67,5.886,6.383,5.886  c-0.246,0-0.499,0.045-0.754,0.135C4.905,6.276,4.386,6.833,4.128,7.632C3.719,8.897,4.05,10.62,4.95,11.918  C5.664,12.947,6.917,14.046,8.295,14.046z M12,0C5.383,0,0,5.383,0,12s5.383,12,12,12c6.617,0,12-5.383,12-12S18.617,0,12,0z M12,22  C6.486,22,2,17.514,2,12S6.486,2,12,2c5.514,0,10,4.486,10,10S17.514,22,12,22z M19.623,14.485c-0.257-0.103-0.547,0.023-0.649,0.28  c-0.075,0.189-0.174,0.36-0.263,0.54c-0.233-0.111-0.517-0.034-0.649,0.194c-0.133,0.229-0.059,0.516,0.158,0.662  c-0.303,0.455-0.644,0.878-1.032,1.251c-0.179-0.199-0.483-0.222-0.689-0.05c-0.206,0.172-0.234,0.473-0.073,0.684  c-0.437,0.32-0.906,0.591-1.405,0.809c-0.103-0.244-0.375-0.368-0.628-0.278c-0.253,0.092-0.382,0.366-0.302,0.619  c-0.514,0.148-1.051,0.23-1.6,0.266C12.473,19.205,12.263,19,12,19c-0.263,0-0.472,0.204-0.492,0.462  c-0.547-0.037-1.083-0.122-1.599-0.274c0.074-0.251-0.054-0.519-0.304-0.61c-0.248-0.088-0.513,0.031-0.62,0.265  c-0.497-0.22-0.969-0.487-1.407-0.807c0.153-0.211,0.125-0.504-0.078-0.674c-0.204-0.17-0.504-0.147-0.685,0.046  c-0.39-0.372-0.727-0.799-1.031-1.251c0.213-0.146,0.285-0.43,0.153-0.657c-0.131-0.229-0.415-0.307-0.649-0.194  c-0.113-0.228-0.232-0.453-0.322-0.695c-0.097-0.258-0.386-0.392-0.643-0.294C4.065,14.413,3.934,14.7,4.029,14.96  c0.109,0.293,0.251,0.565,0.389,0.84l-0.03,0.017c-0.239,0.138-0.321,0.444-0.183,0.683c0.092,0.16,0.261,0.25,0.433,0.25  c0.085,0,0.171-0.021,0.25-0.067l0.034-0.02c0.364,0.549,0.769,1.065,1.243,1.511L6.153,18.19c-0.178,0.212-0.15,0.527,0.062,0.705  c0.094,0.078,0.208,0.117,0.321,0.117c0.143,0,0.284-0.06,0.383-0.179l0.024-0.028c0.525,0.389,1.093,0.712,1.694,0.973  l-0.014,0.038c-0.095,0.259,0.039,0.546,0.299,0.641c0.057,0.021,0.114,0.03,0.171,0.03c0.204,0,0.396-0.126,0.47-0.329l0.009-0.026  c0.62,0.187,1.268,0.289,1.928,0.328V20.5c0,0.276,0.224,0.5,0.5,0.5c0.276,0,0.5-0.224,0.5-0.5v-0.038  c0.664-0.038,1.313-0.136,1.932-0.32l0.006,0.015c0.074,0.203,0.266,0.329,0.47,0.329c0.057,0,0.114-0.01,0.171-0.03  c0.26-0.094,0.394-0.381,0.299-0.641l-0.009-0.024c0.605-0.26,1.172-0.587,1.697-0.978l0.016,0.019  c0.099,0.118,0.24,0.179,0.383,0.179c0.113,0,0.228-0.039,0.321-0.117c0.212-0.178,0.239-0.493,0.062-0.705l-0.009-0.01  c0.472-0.447,0.883-0.959,1.246-1.512l0.027,0.016c0.079,0.045,0.165,0.067,0.25,0.067c0.172,0,0.341-0.09,0.433-0.25  c0.139-0.239,0.057-0.545-0.183-0.683l-0.031-0.018c0.11-0.22,0.231-0.432,0.323-0.664C20.005,14.878,19.88,14.587,19.623,14.485z" id="XMLID_143_" style="fill:#8fff8f"/></svg>